<svg width="115" height="36" viewBox="0 0 115 36" fill="none" xmlns="http://www.w3.org/2000/svg">
<path d="M12.42 0.539998L12.24 17.64L12.36 30H9.24L9.42 18.06L9.36 3.78L1.2 6.24L0.78 6V3.54L11.88 0.119998L12.42 0.539998ZM46.3748 22.56L46.0748 24.84L41.1548 24.78H40.1348L40.2548 35.34L40.0148 35.64L37.6748 35.88L37.4348 35.58L37.5548 24.78H25.4948L22.2548 24.84L21.9548 24.48V22.38L37.3148 0.299998H40.1948L40.1348 22.2H46.0748L46.3748 22.56ZM37.5548 22.2V4.5H37.1948L24.8948 22.2H37.5548ZM64.5384 0C68.6184 0 71.7584 1.32 73.9584 3.96C76.1584 6.56 77.2584 10.28 77.2584 15.12C77.2584 20 76.1184 23.76 73.8384 26.4C71.5984 29 68.3784 30.3 64.1784 30.3C60.0984 30.3 56.9584 29.02 54.7584 26.46C52.5584 23.9 51.4584 20.26 51.4584 15.54C51.4584 10.54 52.5784 6.7 54.8184 4.02C57.0984 1.34 60.3384 0 64.5384 0ZM64.2984 2.88C60.9784 2.88 58.4184 3.94 56.6184 6.06C54.8584 8.18 53.9784 11.26 53.9784 15.3C53.9784 19.3 54.8584 22.34 56.6184 24.42C58.4184 26.5 61.0184 27.54 64.4184 27.54C67.7384 27.54 70.2784 26.52 72.0384 24.48C73.7984 22.4 74.6784 19.4 74.6784 15.48C74.6784 11.36 73.7784 8.24 71.9784 6.12C70.2184 3.96 67.6584 2.88 64.2984 2.88ZM99.5859 20.52L99.6459 23.4H106.546L106.726 23.64L106.606 25.08H99.6459L99.7059 30H96.8859L96.9459 25.08H92.9259L92.6859 24.9L92.8659 23.4H96.9459V20.76L96.8859 0.299998L105.586 0.239999C108.546 0.239999 110.826 0.979999 112.426 2.46C114.066 3.9 114.886 5.98 114.886 8.7C114.886 11.74 113.886 14.1 111.886 15.78C109.926 17.46 107.186 18.3 103.666 18.3H99.5859V20.52ZM111.946 8.88C111.946 6.84 111.366 5.28 110.206 4.2C109.046 3.08 107.346 2.46 105.106 2.34L99.7059 2.46L99.5859 16.02L105.166 16.14C107.366 15.86 109.046 15.1 110.206 13.86C111.366 12.62 111.946 10.96 111.946 8.88Z" fill="#151515"/>
</svg>
